<mxfile host="app.diagrams.net" modified="2023-04-10T22:36:07.356Z" agent="Mozilla/5.0 (Windows NT 10.0; Win64; x64) AppleWebKit/537.36 (KHTML, like Gecko) Chrome/112.0.0.0 Safari/537.36 Edg/112.0.1722.34" etag="DcyX2ZD6ylMBPRBEYFDL" version="21.1.5" type="device">
  <diagram name="Pagina-1" id="0PF9rodISXWD6k8KoJyN">
    <mxGraphModel dx="4270" dy="3139" grid="1" gridSize="10" guides="1" tooltips="1" connect="1" arrows="1" fold="1" page="1" pageScale="1" pageWidth="827" pageHeight="1169" math="0" shadow="0">
      <root>
        <mxCell id="0" />
        <mxCell id="1" parent="0" />
        <mxCell id="aZluGWaW0WpS-Q8TLCgg-1" value="" style="ellipse;whiteSpace=wrap;html=1;aspect=fixed;" parent="1" vertex="1">
          <mxGeometry x="240" y="-80" width="80" height="80" as="geometry" />
        </mxCell>
        <mxCell id="aZluGWaW0WpS-Q8TLCgg-2" value="" style="ellipse;whiteSpace=wrap;html=1;aspect=fixed;" parent="1" vertex="1">
          <mxGeometry x="240" y="80" width="80" height="80" as="geometry" />
        </mxCell>
        <mxCell id="aZluGWaW0WpS-Q8TLCgg-4" value="" style="rounded=0;whiteSpace=wrap;html=1;" parent="1" vertex="1">
          <mxGeometry x="260" y="240" width="80" height="10" as="geometry" />
        </mxCell>
        <mxCell id="aZluGWaW0WpS-Q8TLCgg-5" value="" style="rounded=0;whiteSpace=wrap;html=1;" parent="1" vertex="1">
          <mxGeometry x="240" y="40" width="80" height="10" as="geometry" />
        </mxCell>
        <mxCell id="aZluGWaW0WpS-Q8TLCgg-6" value="" style="endArrow=classic;html=1;rounded=0;exitX=0.5;exitY=1;exitDx=0;exitDy=0;entryX=0.5;entryY=0;entryDx=0;entryDy=0;" parent="1" source="aZluGWaW0WpS-Q8TLCgg-1" target="aZluGWaW0WpS-Q8TLCgg-5" edge="1">
          <mxGeometry width="50" height="50" relative="1" as="geometry">
            <mxPoint x="480" y="160" as="sourcePoint" />
            <mxPoint x="530" y="110" as="targetPoint" />
          </mxGeometry>
        </mxCell>
        <mxCell id="aZluGWaW0WpS-Q8TLCgg-7" value="" style="endArrow=classic;html=1;rounded=0;exitX=0.5;exitY=1;exitDx=0;exitDy=0;entryX=0.5;entryY=0;entryDx=0;entryDy=0;" parent="1" source="aZluGWaW0WpS-Q8TLCgg-5" target="aZluGWaW0WpS-Q8TLCgg-2" edge="1">
          <mxGeometry width="50" height="50" relative="1" as="geometry">
            <mxPoint x="480" y="160" as="sourcePoint" />
            <mxPoint x="530" y="110" as="targetPoint" />
          </mxGeometry>
        </mxCell>
        <mxCell id="aZluGWaW0WpS-Q8TLCgg-8" value="" style="endArrow=classic;html=1;rounded=0;exitX=0.5;exitY=1;exitDx=0;exitDy=0;entryX=0.25;entryY=0;entryDx=0;entryDy=0;" parent="1" source="aZluGWaW0WpS-Q8TLCgg-2" target="aZluGWaW0WpS-Q8TLCgg-4" edge="1">
          <mxGeometry width="50" height="50" relative="1" as="geometry">
            <mxPoint x="480" y="160" as="sourcePoint" />
            <mxPoint x="280" y="200" as="targetPoint" />
          </mxGeometry>
        </mxCell>
        <mxCell id="aZluGWaW0WpS-Q8TLCgg-14" value="Start" style="text;html=1;strokeColor=none;fillColor=none;align=center;verticalAlign=middle;whiteSpace=wrap;rounded=0;" parent="1" vertex="1">
          <mxGeometry x="310" y="105" width="60" height="30" as="geometry" />
        </mxCell>
        <mxCell id="aZluGWaW0WpS-Q8TLCgg-44" value="Init" style="text;html=1;strokeColor=none;fillColor=none;align=center;verticalAlign=middle;whiteSpace=wrap;rounded=0;" parent="1" vertex="1">
          <mxGeometry x="310" y="-55" width="60" height="30" as="geometry" />
        </mxCell>
        <mxCell id="aZluGWaW0WpS-Q8TLCgg-45" value="" style="ellipse;whiteSpace=wrap;html=1;aspect=fixed;fillColor=#000000;" parent="1" vertex="1">
          <mxGeometry x="270" y="-50" width="20" height="20" as="geometry" />
        </mxCell>
        <mxCell id="aZluGWaW0WpS-Q8TLCgg-70" value="&lt;h1&gt;ThreadSlave&lt;/h1&gt;" style="text;html=1;strokeColor=none;fillColor=none;spacing=5;spacingTop=-20;whiteSpace=wrap;overflow=hidden;rounded=0;" parent="1" vertex="1">
          <mxGeometry x="10" y="-50" width="190" height="120" as="geometry" />
        </mxCell>
        <mxCell id="fcbSPb9CoAwVRRGk7kC_-1" value="" style="ellipse;whiteSpace=wrap;html=1;aspect=fixed;" vertex="1" parent="1">
          <mxGeometry x="260" y="280" width="80" height="80" as="geometry" />
        </mxCell>
        <mxCell id="fcbSPb9CoAwVRRGk7kC_-2" value="" style="endArrow=classic;html=1;rounded=0;exitX=0.5;exitY=1;exitDx=0;exitDy=0;" edge="1" parent="1" source="aZluGWaW0WpS-Q8TLCgg-4" target="fcbSPb9CoAwVRRGk7kC_-1">
          <mxGeometry width="50" height="50" relative="1" as="geometry">
            <mxPoint x="490" y="230" as="sourcePoint" />
            <mxPoint x="540" y="180" as="targetPoint" />
          </mxGeometry>
        </mxCell>
        <mxCell id="fcbSPb9CoAwVRRGk7kC_-10" value="" style="ellipse;whiteSpace=wrap;html=1;aspect=fixed;" vertex="1" parent="1">
          <mxGeometry x="840" y="480" width="80" height="80" as="geometry" />
        </mxCell>
        <mxCell id="fcbSPb9CoAwVRRGk7kC_-12" value="" style="ellipse;shape=cloud;whiteSpace=wrap;html=1;" vertex="1" parent="1">
          <mxGeometry x="1000" y="480" width="120" height="80" as="geometry" />
        </mxCell>
        <mxCell id="fcbSPb9CoAwVRRGk7kC_-13" value="GetPath" style="text;html=1;strokeColor=none;fillColor=none;align=center;verticalAlign=middle;whiteSpace=wrap;rounded=0;" vertex="1" parent="1">
          <mxGeometry x="340" y="305" width="60" height="30" as="geometry" />
        </mxCell>
        <mxCell id="fcbSPb9CoAwVRRGk7kC_-14" value="Lock&lt;br&gt;pathsList" style="text;html=1;strokeColor=none;fillColor=none;align=center;verticalAlign=middle;whiteSpace=wrap;rounded=0;" vertex="1" parent="1">
          <mxGeometry x="930" y="505" width="60" height="30" as="geometry" />
        </mxCell>
        <mxCell id="fcbSPb9CoAwVRRGk7kC_-15" value="Threads" style="text;html=1;strokeColor=none;fillColor=none;align=center;verticalAlign=middle;whiteSpace=wrap;rounded=0;" vertex="1" parent="1">
          <mxGeometry x="1030" y="505" width="60" height="30" as="geometry" />
        </mxCell>
        <mxCell id="fcbSPb9CoAwVRRGk7kC_-16" value="" style="endArrow=classic;html=1;rounded=0;exitX=0.5;exitY=0;exitDx=0;exitDy=0;entryX=0.75;entryY=0;entryDx=0;entryDy=0;" edge="1" parent="1" source="fcbSPb9CoAwVRRGk7kC_-10" target="aZluGWaW0WpS-Q8TLCgg-4">
          <mxGeometry width="50" height="50" relative="1" as="geometry">
            <mxPoint x="460" y="340" as="sourcePoint" />
            <mxPoint x="510" y="290" as="targetPoint" />
            <Array as="points">
              <mxPoint x="880" y="200" />
              <mxPoint x="320" y="200" />
            </Array>
          </mxGeometry>
        </mxCell>
        <mxCell id="fcbSPb9CoAwVRRGk7kC_-17" value="" style="endArrow=classic;html=1;rounded=0;exitX=0.5;exitY=0;exitDx=0;exitDy=0;entryX=0.414;entryY=0.095;entryDx=0;entryDy=0;entryPerimeter=0;" edge="1" parent="1" source="fcbSPb9CoAwVRRGk7kC_-10" target="fcbSPb9CoAwVRRGk7kC_-12">
          <mxGeometry width="50" height="50" relative="1" as="geometry">
            <mxPoint x="816" y="330" as="sourcePoint" />
            <mxPoint x="996" y="260" as="targetPoint" />
            <Array as="points">
              <mxPoint x="880" y="400" />
              <mxPoint x="1050" y="400" />
            </Array>
          </mxGeometry>
        </mxCell>
        <mxCell id="fcbSPb9CoAwVRRGk7kC_-18" value="" style="endArrow=classic;html=1;rounded=0;exitX=0.5;exitY=1;exitDx=0;exitDy=0;entryX=0.25;entryY=0;entryDx=0;entryDy=0;" edge="1" parent="1" source="fcbSPb9CoAwVRRGk7kC_-1" target="fcbSPb9CoAwVRRGk7kC_-19">
          <mxGeometry width="50" height="50" relative="1" as="geometry">
            <mxPoint x="540" y="360" as="sourcePoint" />
            <mxPoint x="320" y="380" as="targetPoint" />
          </mxGeometry>
        </mxCell>
        <mxCell id="fcbSPb9CoAwVRRGk7kC_-19" value="" style="rounded=0;whiteSpace=wrap;html=1;" vertex="1" parent="1">
          <mxGeometry x="280" y="440" width="80" height="10" as="geometry" />
        </mxCell>
        <mxCell id="fcbSPb9CoAwVRRGk7kC_-22" value="" style="ellipse;whiteSpace=wrap;html=1;aspect=fixed;" vertex="1" parent="1">
          <mxGeometry x="280" y="480" width="80" height="80" as="geometry" />
        </mxCell>
        <mxCell id="fcbSPb9CoAwVRRGk7kC_-23" value="&lt;div style=&quot;background-color: rgb(255, 255, 255); color: rgb(8, 8, 8); font-family: &amp;quot;Source Code Pro&amp;quot;, monospace;&quot;&gt;nActiveSlaveThread&lt;/div&gt;&lt;div style=&quot;background-color: rgb(255, 255, 255); color: rgb(8, 8, 8); font-family: &amp;quot;Source Code Pro&amp;quot;, monospace;&quot;&gt;++&lt;/div&gt;" style="text;html=1;strokeColor=none;fillColor=none;align=center;verticalAlign=middle;whiteSpace=wrap;rounded=0;" vertex="1" parent="1">
          <mxGeometry x="400" y="505" width="60" height="30" as="geometry" />
        </mxCell>
        <mxCell id="fcbSPb9CoAwVRRGk7kC_-24" value="" style="endArrow=classic;html=1;rounded=0;exitX=0.5;exitY=1;exitDx=0;exitDy=0;entryX=0.5;entryY=0;entryDx=0;entryDy=0;" edge="1" parent="1" source="fcbSPb9CoAwVRRGk7kC_-19" target="fcbSPb9CoAwVRRGk7kC_-22">
          <mxGeometry width="50" height="50" relative="1" as="geometry">
            <mxPoint x="600" y="530" as="sourcePoint" />
            <mxPoint x="650" y="480" as="targetPoint" />
          </mxGeometry>
        </mxCell>
        <mxCell id="fcbSPb9CoAwVRRGk7kC_-25" value="" style="ellipse;whiteSpace=wrap;html=1;aspect=fixed;" vertex="1" parent="1">
          <mxGeometry x="520" y="480" width="80" height="80" as="geometry" />
        </mxCell>
        <mxCell id="fcbSPb9CoAwVRRGk7kC_-26" value="" style="endArrow=classic;html=1;rounded=0;exitX=0.5;exitY=0;exitDx=0;exitDy=0;entryX=0.75;entryY=0;entryDx=0;entryDy=0;" edge="1" parent="1" source="fcbSPb9CoAwVRRGk7kC_-25" target="fcbSPb9CoAwVRRGk7kC_-19">
          <mxGeometry width="50" height="50" relative="1" as="geometry">
            <mxPoint x="600" y="530" as="sourcePoint" />
            <mxPoint x="560" y="400" as="targetPoint" />
            <Array as="points">
              <mxPoint x="560" y="400" />
              <mxPoint x="340" y="400" />
            </Array>
          </mxGeometry>
        </mxCell>
        <mxCell id="fcbSPb9CoAwVRRGk7kC_-27" value="" style="ellipse;shape=cloud;whiteSpace=wrap;html=1;" vertex="1" parent="1">
          <mxGeometry x="680" y="480" width="120" height="80" as="geometry" />
        </mxCell>
        <mxCell id="fcbSPb9CoAwVRRGk7kC_-28" value="" style="endArrow=classic;html=1;rounded=0;exitX=0.5;exitY=0;exitDx=0;exitDy=0;" edge="1" parent="1" source="fcbSPb9CoAwVRRGk7kC_-25">
          <mxGeometry width="50" height="50" relative="1" as="geometry">
            <mxPoint x="600" y="530" as="sourcePoint" />
            <mxPoint x="730" y="440" as="targetPoint" />
            <Array as="points">
              <mxPoint x="560" y="400" />
              <mxPoint x="730" y="400" />
            </Array>
          </mxGeometry>
        </mxCell>
        <mxCell id="fcbSPb9CoAwVRRGk7kC_-29" value="&lt;br&gt;Slaves&lt;br&gt;thread" style="text;html=1;strokeColor=none;fillColor=none;align=center;verticalAlign=middle;whiteSpace=wrap;rounded=0;" vertex="1" parent="1">
          <mxGeometry x="712" y="503" width="60" height="30" as="geometry" />
        </mxCell>
        <mxCell id="fcbSPb9CoAwVRRGk7kC_-32" style="edgeStyle=orthogonalEdgeStyle;rounded=0;orthogonalLoop=1;jettySize=auto;html=1;entryX=0.422;entryY=0.096;entryDx=0;entryDy=0;entryPerimeter=0;" edge="1" parent="1" source="fcbSPb9CoAwVRRGk7kC_-30" target="fcbSPb9CoAwVRRGk7kC_-27">
          <mxGeometry relative="1" as="geometry" />
        </mxCell>
        <mxCell id="fcbSPb9CoAwVRRGk7kC_-30" value="" style="rounded=0;whiteSpace=wrap;html=1;" vertex="1" parent="1">
          <mxGeometry x="690" y="440" width="80" height="10" as="geometry" />
        </mxCell>
        <mxCell id="fcbSPb9CoAwVRRGk7kC_-33" value="Lock&lt;br&gt;counter" style="text;html=1;strokeColor=none;fillColor=none;align=center;verticalAlign=middle;whiteSpace=wrap;rounded=0;" vertex="1" parent="1">
          <mxGeometry x="600" y="505" width="60" height="30" as="geometry" />
        </mxCell>
        <mxCell id="fcbSPb9CoAwVRRGk7kC_-35" value="" style="rounded=0;whiteSpace=wrap;html=1;" vertex="1" parent="1">
          <mxGeometry x="280" y="600" width="80" height="10" as="geometry" />
        </mxCell>
        <mxCell id="fcbSPb9CoAwVRRGk7kC_-36" value="" style="endArrow=classic;html=1;rounded=0;exitX=0.5;exitY=1;exitDx=0;exitDy=0;entryX=0.5;entryY=0;entryDx=0;entryDy=0;" edge="1" parent="1" source="fcbSPb9CoAwVRRGk7kC_-22" target="fcbSPb9CoAwVRRGk7kC_-35">
          <mxGeometry width="50" height="50" relative="1" as="geometry">
            <mxPoint x="790" y="560" as="sourcePoint" />
            <mxPoint x="840" y="510" as="targetPoint" />
          </mxGeometry>
        </mxCell>
        <mxCell id="fcbSPb9CoAwVRRGk7kC_-38" value="" style="endArrow=classic;html=1;rounded=0;exitX=1;exitY=1;exitDx=0;exitDy=0;entryX=0.5;entryY=1;entryDx=0;entryDy=0;" edge="1" parent="1" source="fcbSPb9CoAwVRRGk7kC_-35" target="fcbSPb9CoAwVRRGk7kC_-25">
          <mxGeometry width="50" height="50" relative="1" as="geometry">
            <mxPoint x="790" y="670" as="sourcePoint" />
            <mxPoint x="840" y="620" as="targetPoint" />
            <Array as="points">
              <mxPoint x="360" y="640" />
              <mxPoint x="560" y="640" />
            </Array>
          </mxGeometry>
        </mxCell>
        <mxCell id="fcbSPb9CoAwVRRGk7kC_-39" value="" style="endArrow=classic;html=1;rounded=0;exitX=0.75;exitY=1;exitDx=0;exitDy=0;entryX=0.55;entryY=0.95;entryDx=0;entryDy=0;entryPerimeter=0;" edge="1" parent="1" source="fcbSPb9CoAwVRRGk7kC_-35" target="fcbSPb9CoAwVRRGk7kC_-27">
          <mxGeometry width="50" height="50" relative="1" as="geometry">
            <mxPoint x="790" y="670" as="sourcePoint" />
            <mxPoint x="840" y="620" as="targetPoint" />
            <Array as="points">
              <mxPoint x="340" y="660" />
              <mxPoint x="746" y="660" />
            </Array>
          </mxGeometry>
        </mxCell>
        <mxCell id="fcbSPb9CoAwVRRGk7kC_-40" value="" style="endArrow=classic;html=1;rounded=0;exitX=0.5;exitY=1;exitDx=0;exitDy=0;entryX=0.5;entryY=1;entryDx=0;entryDy=0;" edge="1" parent="1" source="fcbSPb9CoAwVRRGk7kC_-35" target="fcbSPb9CoAwVRRGk7kC_-10">
          <mxGeometry width="50" height="50" relative="1" as="geometry">
            <mxPoint x="760" y="690" as="sourcePoint" />
            <mxPoint x="810" y="640" as="targetPoint" />
            <Array as="points">
              <mxPoint x="320" y="680" />
              <mxPoint x="880" y="680" />
            </Array>
          </mxGeometry>
        </mxCell>
        <mxCell id="fcbSPb9CoAwVRRGk7kC_-42" value="" style="ellipse;whiteSpace=wrap;html=1;aspect=fixed;fillColor=#000000;" vertex="1" parent="1">
          <mxGeometry x="550" y="510" width="20" height="20" as="geometry" />
        </mxCell>
        <mxCell id="fcbSPb9CoAwVRRGk7kC_-43" value="" style="ellipse;whiteSpace=wrap;html=1;aspect=fixed;fillColor=#000000;" vertex="1" parent="1">
          <mxGeometry x="870" y="510" width="20" height="20" as="geometry" />
        </mxCell>
        <mxCell id="fcbSPb9CoAwVRRGk7kC_-44" value="" style="ellipse;whiteSpace=wrap;html=1;aspect=fixed;" vertex="1" parent="1">
          <mxGeometry x="240" y="720" width="80" height="80" as="geometry" />
        </mxCell>
        <mxCell id="fcbSPb9CoAwVRRGk7kC_-45" value="" style="endArrow=classic;html=1;rounded=0;exitX=0;exitY=1;exitDx=0;exitDy=0;entryX=0.5;entryY=0;entryDx=0;entryDy=0;" edge="1" parent="1" source="fcbSPb9CoAwVRRGk7kC_-35" target="fcbSPb9CoAwVRRGk7kC_-44">
          <mxGeometry width="50" height="50" relative="1" as="geometry">
            <mxPoint x="530" y="780" as="sourcePoint" />
            <mxPoint x="580" y="730" as="targetPoint" />
          </mxGeometry>
        </mxCell>
        <mxCell id="fcbSPb9CoAwVRRGk7kC_-46" value="If ( path ==&amp;nbsp;&lt;br&gt;termination&lt;br&gt;message)" style="text;html=1;strokeColor=none;fillColor=none;align=center;verticalAlign=middle;whiteSpace=wrap;rounded=0;" vertex="1" parent="1">
          <mxGeometry x="330" y="745" width="60" height="30" as="geometry" />
        </mxCell>
        <mxCell id="fcbSPb9CoAwVRRGk7kC_-47" value="" style="endArrow=classic;html=1;rounded=0;exitX=0.5;exitY=1;exitDx=0;exitDy=0;entryX=0.5;entryY=0;entryDx=0;entryDy=0;" edge="1" parent="1" source="fcbSPb9CoAwVRRGk7kC_-44" target="fcbSPb9CoAwVRRGk7kC_-49">
          <mxGeometry width="50" height="50" relative="1" as="geometry">
            <mxPoint x="480" y="880" as="sourcePoint" />
            <mxPoint x="360" y="840" as="targetPoint" />
          </mxGeometry>
        </mxCell>
        <mxCell id="fcbSPb9CoAwVRRGk7kC_-48" value="" style="endArrow=classic;html=1;rounded=0;exitX=0.5;exitY=1;exitDx=0;exitDy=0;entryX=0.5;entryY=0;entryDx=0;entryDy=0;" edge="1" parent="1" source="fcbSPb9CoAwVRRGk7kC_-44" target="fcbSPb9CoAwVRRGk7kC_-50">
          <mxGeometry width="50" height="50" relative="1" as="geometry">
            <mxPoint x="480" y="880" as="sourcePoint" />
            <mxPoint x="200" y="840" as="targetPoint" />
          </mxGeometry>
        </mxCell>
        <mxCell id="fcbSPb9CoAwVRRGk7kC_-49" value="" style="rounded=0;whiteSpace=wrap;html=1;" vertex="1" parent="1">
          <mxGeometry x="320" y="840" width="80" height="10" as="geometry" />
        </mxCell>
        <mxCell id="fcbSPb9CoAwVRRGk7kC_-50" value="" style="rounded=0;whiteSpace=wrap;html=1;" vertex="1" parent="1">
          <mxGeometry x="160" y="840" width="80" height="10" as="geometry" />
        </mxCell>
        <mxCell id="fcbSPb9CoAwVRRGk7kC_-51" value="True" style="text;html=1;strokeColor=none;fillColor=none;align=center;verticalAlign=middle;whiteSpace=wrap;rounded=0;" vertex="1" parent="1">
          <mxGeometry x="190" y="800" width="60" height="30" as="geometry" />
        </mxCell>
        <mxCell id="fcbSPb9CoAwVRRGk7kC_-52" value="False" style="text;html=1;strokeColor=none;fillColor=none;align=center;verticalAlign=middle;whiteSpace=wrap;rounded=0;" vertex="1" parent="1">
          <mxGeometry x="320" y="800" width="60" height="30" as="geometry" />
        </mxCell>
        <mxCell id="fcbSPb9CoAwVRRGk7kC_-53" value="" style="ellipse;whiteSpace=wrap;html=1;aspect=fixed;" vertex="1" parent="1">
          <mxGeometry x="160" y="880" width="80" height="80" as="geometry" />
        </mxCell>
        <mxCell id="fcbSPb9CoAwVRRGk7kC_-54" value="" style="ellipse;whiteSpace=wrap;html=1;aspect=fixed;" vertex="1" parent="1">
          <mxGeometry x="320" y="880" width="80" height="80" as="geometry" />
        </mxCell>
        <mxCell id="fcbSPb9CoAwVRRGk7kC_-55" value="" style="endArrow=classic;html=1;rounded=0;exitX=0.5;exitY=1;exitDx=0;exitDy=0;entryX=0.5;entryY=0;entryDx=0;entryDy=0;" edge="1" parent="1" source="fcbSPb9CoAwVRRGk7kC_-50" target="fcbSPb9CoAwVRRGk7kC_-53">
          <mxGeometry width="50" height="50" relative="1" as="geometry">
            <mxPoint x="520" y="970" as="sourcePoint" />
            <mxPoint x="570" y="920" as="targetPoint" />
          </mxGeometry>
        </mxCell>
        <mxCell id="fcbSPb9CoAwVRRGk7kC_-56" value="" style="endArrow=classic;html=1;rounded=0;exitX=0.5;exitY=1;exitDx=0;exitDy=0;entryX=0.5;entryY=0;entryDx=0;entryDy=0;" edge="1" parent="1" source="fcbSPb9CoAwVRRGk7kC_-49" target="fcbSPb9CoAwVRRGk7kC_-54">
          <mxGeometry width="50" height="50" relative="1" as="geometry">
            <mxPoint x="520" y="970" as="sourcePoint" />
            <mxPoint x="570" y="920" as="targetPoint" />
          </mxGeometry>
        </mxCell>
        <mxCell id="fcbSPb9CoAwVRRGk7kC_-57" value="Return" style="text;html=1;strokeColor=none;fillColor=none;align=center;verticalAlign=middle;whiteSpace=wrap;rounded=0;" vertex="1" parent="1">
          <mxGeometry x="240" y="905" width="60" height="30" as="geometry" />
        </mxCell>
        <mxCell id="fcbSPb9CoAwVRRGk7kC_-58" value="If ( path ==&amp;nbsp;&lt;br style=&quot;border-color: var(--border-color);&quot;&gt;skipp&lt;br style=&quot;border-color: var(--border-color);&quot;&gt;message)" style="text;html=1;strokeColor=none;fillColor=none;align=center;verticalAlign=middle;whiteSpace=wrap;rounded=0;" vertex="1" parent="1">
          <mxGeometry x="400" y="905" width="60" height="30" as="geometry" />
        </mxCell>
        <mxCell id="fcbSPb9CoAwVRRGk7kC_-59" value="" style="endArrow=classic;html=1;rounded=0;exitX=0.5;exitY=1;exitDx=0;exitDy=0;entryX=0.5;entryY=0;entryDx=0;entryDy=0;" edge="1" parent="1" source="fcbSPb9CoAwVRRGk7kC_-54">
          <mxGeometry width="50" height="50" relative="1" as="geometry">
            <mxPoint x="520" y="1050" as="sourcePoint" />
            <mxPoint x="280" y="1000" as="targetPoint" />
          </mxGeometry>
        </mxCell>
        <mxCell id="fcbSPb9CoAwVRRGk7kC_-60" value="" style="endArrow=classic;html=1;rounded=0;exitX=0.5;exitY=1;exitDx=0;exitDy=0;entryX=0.5;entryY=0;entryDx=0;entryDy=0;" edge="1" parent="1" source="fcbSPb9CoAwVRRGk7kC_-54" target="fcbSPb9CoAwVRRGk7kC_-65">
          <mxGeometry width="50" height="50" relative="1" as="geometry">
            <mxPoint x="520" y="1050" as="sourcePoint" />
            <mxPoint x="440" y="1000" as="targetPoint" />
          </mxGeometry>
        </mxCell>
        <mxCell id="fcbSPb9CoAwVRRGk7kC_-61" value="False" style="text;html=1;strokeColor=none;fillColor=none;align=center;verticalAlign=middle;whiteSpace=wrap;rounded=0;" vertex="1" parent="1">
          <mxGeometry x="410" y="960" width="60" height="30" as="geometry" />
        </mxCell>
        <mxCell id="fcbSPb9CoAwVRRGk7kC_-62" value="True" style="text;html=1;strokeColor=none;fillColor=none;align=center;verticalAlign=middle;whiteSpace=wrap;rounded=0;" vertex="1" parent="1">
          <mxGeometry x="260" y="960" width="60" height="30" as="geometry" />
        </mxCell>
        <mxCell id="fcbSPb9CoAwVRRGk7kC_-64" value="" style="endArrow=classic;html=1;rounded=0;exitX=0.5;exitY=1;exitDx=0;exitDy=0;entryX=0;entryY=1;entryDx=0;entryDy=0;" edge="1" parent="1" target="aZluGWaW0WpS-Q8TLCgg-2">
          <mxGeometry width="50" height="50" relative="1" as="geometry">
            <mxPoint x="280" y="1010" as="sourcePoint" />
            <mxPoint x="280" y="1040" as="targetPoint" />
            <Array as="points">
              <mxPoint x="280" y="1040" />
              <mxPoint x="80" y="1040" />
              <mxPoint x="80" y="150" />
            </Array>
          </mxGeometry>
        </mxCell>
        <mxCell id="fcbSPb9CoAwVRRGk7kC_-65" value="" style="rounded=0;whiteSpace=wrap;html=1;" vertex="1" parent="1">
          <mxGeometry x="400" y="1000" width="80" height="10" as="geometry" />
        </mxCell>
        <mxCell id="fcbSPb9CoAwVRRGk7kC_-67" value="" style="ellipse;whiteSpace=wrap;html=1;aspect=fixed;" vertex="1" parent="1">
          <mxGeometry x="400" y="1040" width="80" height="80" as="geometry" />
        </mxCell>
        <mxCell id="fcbSPb9CoAwVRRGk7kC_-68" value="" style="endArrow=classic;html=1;rounded=0;exitX=0.5;exitY=1;exitDx=0;exitDy=0;entryX=0.5;entryY=0;entryDx=0;entryDy=0;" edge="1" parent="1" source="fcbSPb9CoAwVRRGk7kC_-65" target="fcbSPb9CoAwVRRGk7kC_-67">
          <mxGeometry width="50" height="50" relative="1" as="geometry">
            <mxPoint x="480" y="1070" as="sourcePoint" />
            <mxPoint x="530" y="1020" as="targetPoint" />
          </mxGeometry>
        </mxCell>
        <mxCell id="fcbSPb9CoAwVRRGk7kC_-69" value="&lt;span style=&quot;color: rgb(0, 0, 0); font-family: Helvetica; font-size: 12px; font-style: normal; font-variant-ligatures: normal; font-variant-caps: normal; font-weight: 400; letter-spacing: normal; orphans: 2; text-align: center; text-indent: 0px; text-transform: none; widows: 2; word-spacing: 0px; -webkit-text-stroke-width: 0px; background-color: rgb(251, 251, 251); text-decoration-thickness: initial; text-decoration-style: initial; text-decoration-color: initial; float: none; display: inline !important;&quot;&gt;If ( path end with .java&amp;nbsp;&lt;/span&gt;&lt;span style=&quot;color: rgb(0, 0, 0); font-family: Helvetica; font-size: 12px; font-style: normal; font-variant-ligatures: normal; font-variant-caps: normal; font-weight: 400; letter-spacing: normal; orphans: 2; text-align: center; text-indent: 0px; text-transform: none; widows: 2; word-spacing: 0px; -webkit-text-stroke-width: 0px; background-color: rgb(251, 251, 251); text-decoration-thickness: initial; text-decoration-style: initial; text-decoration-color: initial; float: none; display: inline !important;&quot;&gt;)&lt;/span&gt;" style="text;whiteSpace=wrap;html=1;" vertex="1" parent="1">
          <mxGeometry x="490" y="1060" width="70" height="40" as="geometry" />
        </mxCell>
        <mxCell id="fcbSPb9CoAwVRRGk7kC_-70" value="" style="endArrow=classic;html=1;rounded=0;exitX=0.5;exitY=1;exitDx=0;exitDy=0;entryX=0.25;entryY=0;entryDx=0;entryDy=0;" edge="1" parent="1" source="fcbSPb9CoAwVRRGk7kC_-67" target="fcbSPb9CoAwVRRGk7kC_-78">
          <mxGeometry width="50" height="50" relative="1" as="geometry">
            <mxPoint x="450" y="1230" as="sourcePoint" />
            <mxPoint x="520" y="1160" as="targetPoint" />
          </mxGeometry>
        </mxCell>
        <mxCell id="fcbSPb9CoAwVRRGk7kC_-71" value="" style="endArrow=classic;html=1;rounded=0;exitX=0.5;exitY=1;exitDx=0;exitDy=0;entryX=0.5;entryY=0;entryDx=0;entryDy=0;" edge="1" parent="1" source="fcbSPb9CoAwVRRGk7kC_-67" target="fcbSPb9CoAwVRRGk7kC_-126">
          <mxGeometry width="50" height="50" relative="1" as="geometry">
            <mxPoint x="440" y="1280" as="sourcePoint" />
            <mxPoint x="380" y="1160" as="targetPoint" />
          </mxGeometry>
        </mxCell>
        <mxCell id="fcbSPb9CoAwVRRGk7kC_-94" style="edgeStyle=orthogonalEdgeStyle;rounded=0;orthogonalLoop=1;jettySize=auto;html=1;entryX=0.5;entryY=0;entryDx=0;entryDy=0;" edge="1" parent="1" source="fcbSPb9CoAwVRRGk7kC_-72" target="fcbSPb9CoAwVRRGk7kC_-89">
          <mxGeometry relative="1" as="geometry" />
        </mxCell>
        <mxCell id="fcbSPb9CoAwVRRGk7kC_-72" value="" style="ellipse;whiteSpace=wrap;html=1;aspect=fixed;" vertex="1" parent="1">
          <mxGeometry x="480" y="1200" width="80" height="80" as="geometry" />
        </mxCell>
        <mxCell id="fcbSPb9CoAwVRRGk7kC_-73" value="" style="endArrow=classic;html=1;rounded=0;exitX=0.31;exitY=0.8;exitDx=0;exitDy=0;exitPerimeter=0;" edge="1" parent="1" source="fcbSPb9CoAwVRRGk7kC_-27">
          <mxGeometry width="50" height="50" relative="1" as="geometry">
            <mxPoint x="610" y="630" as="sourcePoint" />
            <mxPoint x="560" y="560" as="targetPoint" />
            <Array as="points">
              <mxPoint x="717" y="640" />
              <mxPoint x="560" y="640" />
            </Array>
          </mxGeometry>
        </mxCell>
        <mxCell id="fcbSPb9CoAwVRRGk7kC_-74" value="" style="endArrow=classic;html=1;rounded=0;exitX=0.31;exitY=0.8;exitDx=0;exitDy=0;exitPerimeter=0;entryX=0.5;entryY=1;entryDx=0;entryDy=0;" edge="1" parent="1" source="fcbSPb9CoAwVRRGk7kC_-12" target="fcbSPb9CoAwVRRGk7kC_-10">
          <mxGeometry width="50" height="50" relative="1" as="geometry">
            <mxPoint x="600" y="650" as="sourcePoint" />
            <mxPoint x="650" y="600" as="targetPoint" />
            <Array as="points">
              <mxPoint x="1037" y="680" />
              <mxPoint x="880" y="680" />
            </Array>
          </mxGeometry>
        </mxCell>
        <mxCell id="fcbSPb9CoAwVRRGk7kC_-93" style="edgeStyle=orthogonalEdgeStyle;rounded=0;orthogonalLoop=1;jettySize=auto;html=1;entryX=0.5;entryY=0;entryDx=0;entryDy=0;" edge="1" parent="1" source="fcbSPb9CoAwVRRGk7kC_-75" target="fcbSPb9CoAwVRRGk7kC_-88">
          <mxGeometry relative="1" as="geometry" />
        </mxCell>
        <mxCell id="fcbSPb9CoAwVRRGk7kC_-75" value="" style="ellipse;whiteSpace=wrap;html=1;aspect=fixed;" vertex="1" parent="1">
          <mxGeometry x="320" y="1360" width="80" height="80" as="geometry" />
        </mxCell>
        <mxCell id="fcbSPb9CoAwVRRGk7kC_-76" value="" style="rounded=0;whiteSpace=wrap;html=1;" vertex="1" parent="1">
          <mxGeometry x="240" y="1000" width="80" height="10" as="geometry" />
        </mxCell>
        <mxCell id="fcbSPb9CoAwVRRGk7kC_-77" value="" style="rounded=0;whiteSpace=wrap;html=1;" vertex="1" parent="1">
          <mxGeometry x="320" y="1319" width="80" height="10" as="geometry" />
        </mxCell>
        <mxCell id="fcbSPb9CoAwVRRGk7kC_-78" value="" style="rounded=0;whiteSpace=wrap;html=1;" vertex="1" parent="1">
          <mxGeometry x="480" y="1159" width="80" height="10" as="geometry" />
        </mxCell>
        <mxCell id="fcbSPb9CoAwVRRGk7kC_-79" value="" style="endArrow=classic;html=1;rounded=0;exitX=0.5;exitY=1;exitDx=0;exitDy=0;entryX=0.5;entryY=0;entryDx=0;entryDy=0;" edge="1" parent="1" source="fcbSPb9CoAwVRRGk7kC_-77" target="fcbSPb9CoAwVRRGk7kC_-75">
          <mxGeometry width="50" height="50" relative="1" as="geometry">
            <mxPoint x="630" y="1300" as="sourcePoint" />
            <mxPoint x="680" y="1250" as="targetPoint" />
          </mxGeometry>
        </mxCell>
        <mxCell id="fcbSPb9CoAwVRRGk7kC_-80" value="" style="endArrow=classic;html=1;rounded=0;exitX=0.5;exitY=1;exitDx=0;exitDy=0;entryX=0.5;entryY=0;entryDx=0;entryDy=0;" edge="1" parent="1" source="fcbSPb9CoAwVRRGk7kC_-78" target="fcbSPb9CoAwVRRGk7kC_-72">
          <mxGeometry width="50" height="50" relative="1" as="geometry">
            <mxPoint x="630" y="1140" as="sourcePoint" />
            <mxPoint x="680" y="1090" as="targetPoint" />
          </mxGeometry>
        </mxCell>
        <mxCell id="fcbSPb9CoAwVRRGk7kC_-81" value="" style="ellipse;whiteSpace=wrap;html=1;aspect=fixed;" vertex="1" parent="1">
          <mxGeometry x="640" y="1200" width="80" height="80" as="geometry" />
        </mxCell>
        <mxCell id="fcbSPb9CoAwVRRGk7kC_-82" value="" style="ellipse;shape=cloud;whiteSpace=wrap;html=1;" vertex="1" parent="1">
          <mxGeometry x="820" y="1200" width="120" height="80" as="geometry" />
        </mxCell>
        <mxCell id="fcbSPb9CoAwVRRGk7kC_-83" value="" style="ellipse;whiteSpace=wrap;html=1;aspect=fixed;" vertex="1" parent="1">
          <mxGeometry x="160" y="1360" width="80" height="80" as="geometry" />
        </mxCell>
        <mxCell id="fcbSPb9CoAwVRRGk7kC_-95" style="edgeStyle=orthogonalEdgeStyle;rounded=0;orthogonalLoop=1;jettySize=auto;html=1;entryX=0.5;entryY=0;entryDx=0;entryDy=0;" edge="1" parent="1" source="fcbSPb9CoAwVRRGk7kC_-84" target="fcbSPb9CoAwVRRGk7kC_-87">
          <mxGeometry relative="1" as="geometry" />
        </mxCell>
        <mxCell id="fcbSPb9CoAwVRRGk7kC_-84" value="" style="ellipse;whiteSpace=wrap;html=1;aspect=fixed;" vertex="1" parent="1">
          <mxGeometry y="1360" width="80" height="80" as="geometry" />
        </mxCell>
        <mxCell id="fcbSPb9CoAwVRRGk7kC_-96" style="edgeStyle=orthogonalEdgeStyle;rounded=0;orthogonalLoop=1;jettySize=auto;html=1;entryX=0.25;entryY=0;entryDx=0;entryDy=0;" edge="1" parent="1" source="fcbSPb9CoAwVRRGk7kC_-85" target="fcbSPb9CoAwVRRGk7kC_-86">
          <mxGeometry relative="1" as="geometry" />
        </mxCell>
        <mxCell id="fcbSPb9CoAwVRRGk7kC_-85" value="" style="ellipse;shape=cloud;whiteSpace=wrap;html=1;" vertex="1" parent="1">
          <mxGeometry x="-40" y="1180" width="120" height="80" as="geometry" />
        </mxCell>
        <mxCell id="fcbSPb9CoAwVRRGk7kC_-97" style="edgeStyle=orthogonalEdgeStyle;rounded=0;orthogonalLoop=1;jettySize=auto;html=1;" edge="1" parent="1" source="fcbSPb9CoAwVRRGk7kC_-86" target="fcbSPb9CoAwVRRGk7kC_-84">
          <mxGeometry relative="1" as="geometry" />
        </mxCell>
        <mxCell id="fcbSPb9CoAwVRRGk7kC_-86" value="" style="rounded=0;whiteSpace=wrap;html=1;" vertex="1" parent="1">
          <mxGeometry y="1320" width="80" height="9" as="geometry" />
        </mxCell>
        <mxCell id="fcbSPb9CoAwVRRGk7kC_-87" value="" style="rounded=0;whiteSpace=wrap;html=1;" vertex="1" parent="1">
          <mxGeometry y="1480" width="80" height="10" as="geometry" />
        </mxCell>
        <mxCell id="fcbSPb9CoAwVRRGk7kC_-88" value="" style="rounded=0;whiteSpace=wrap;html=1;" vertex="1" parent="1">
          <mxGeometry x="320" y="1480" width="80" height="10" as="geometry" />
        </mxCell>
        <mxCell id="fcbSPb9CoAwVRRGk7kC_-89" value="" style="rounded=0;whiteSpace=wrap;html=1;" vertex="1" parent="1">
          <mxGeometry x="480" y="1320" width="80" height="10" as="geometry" />
        </mxCell>
        <mxCell id="fcbSPb9CoAwVRRGk7kC_-90" value="" style="ellipse;whiteSpace=wrap;html=1;aspect=fixed;fillColor=#000000;" vertex="1" parent="1">
          <mxGeometry x="670" y="1230" width="20" height="20" as="geometry" />
        </mxCell>
        <mxCell id="fcbSPb9CoAwVRRGk7kC_-91" value="" style="ellipse;whiteSpace=wrap;html=1;aspect=fixed;fillColor=#000000;" vertex="1" parent="1">
          <mxGeometry x="190" y="1390" width="20" height="20" as="geometry" />
        </mxCell>
        <mxCell id="fcbSPb9CoAwVRRGk7kC_-100" value="True" style="text;html=1;strokeColor=none;fillColor=none;align=center;verticalAlign=middle;whiteSpace=wrap;rounded=0;" vertex="1" parent="1">
          <mxGeometry x="360" y="1120" width="60" height="30" as="geometry" />
        </mxCell>
        <mxCell id="fcbSPb9CoAwVRRGk7kC_-101" value="False" style="text;html=1;strokeColor=none;fillColor=none;align=center;verticalAlign=middle;whiteSpace=wrap;rounded=0;" vertex="1" parent="1">
          <mxGeometry x="460" y="1120" width="60" height="30" as="geometry" />
        </mxCell>
        <mxCell id="fcbSPb9CoAwVRRGk7kC_-102" value="Slaves&lt;br&gt;thread" style="text;html=1;strokeColor=none;fillColor=none;align=center;verticalAlign=middle;whiteSpace=wrap;rounded=0;" vertex="1" parent="1">
          <mxGeometry x="-10" y="1205" width="60" height="30" as="geometry" />
        </mxCell>
        <mxCell id="fcbSPb9CoAwVRRGk7kC_-103" value="Threads" style="text;html=1;strokeColor=none;fillColor=none;align=center;verticalAlign=middle;whiteSpace=wrap;rounded=0;" vertex="1" parent="1">
          <mxGeometry x="850" y="1225" width="60" height="30" as="geometry" />
        </mxCell>
        <mxCell id="fcbSPb9CoAwVRRGk7kC_-105" value="" style="endArrow=classic;html=1;rounded=0;exitX=0.5;exitY=0;exitDx=0;exitDy=0;entryX=0.75;entryY=0;entryDx=0;entryDy=0;" edge="1" parent="1" source="fcbSPb9CoAwVRRGk7kC_-81" target="fcbSPb9CoAwVRRGk7kC_-78">
          <mxGeometry width="50" height="50" relative="1" as="geometry">
            <mxPoint x="560" y="1310" as="sourcePoint" />
            <mxPoint x="610" y="1260" as="targetPoint" />
            <Array as="points">
              <mxPoint x="680" y="1120" />
              <mxPoint x="540" y="1120" />
            </Array>
          </mxGeometry>
        </mxCell>
        <mxCell id="fcbSPb9CoAwVRRGk7kC_-106" value="" style="endArrow=classic;html=1;rounded=0;entryX=0.4;entryY=0.1;entryDx=0;entryDy=0;entryPerimeter=0;" edge="1" parent="1" target="fcbSPb9CoAwVRRGk7kC_-82">
          <mxGeometry width="50" height="50" relative="1" as="geometry">
            <mxPoint x="680" y="1200" as="sourcePoint" />
            <mxPoint x="610" y="1260" as="targetPoint" />
            <Array as="points">
              <mxPoint x="680" y="1120" />
              <mxPoint x="868" y="1120" />
            </Array>
          </mxGeometry>
        </mxCell>
        <mxCell id="fcbSPb9CoAwVRRGk7kC_-107" value="" style="endArrow=classic;html=1;rounded=0;exitX=0.5;exitY=0;exitDx=0;exitDy=0;entryX=0.25;entryY=0;entryDx=0;entryDy=0;" edge="1" parent="1" source="fcbSPb9CoAwVRRGk7kC_-83" target="fcbSPb9CoAwVRRGk7kC_-77">
          <mxGeometry width="50" height="50" relative="1" as="geometry">
            <mxPoint x="280" y="1470" as="sourcePoint" />
            <mxPoint x="330" y="1420" as="targetPoint" />
            <Array as="points">
              <mxPoint x="200" y="1280" />
              <mxPoint x="340" y="1280" />
            </Array>
          </mxGeometry>
        </mxCell>
        <mxCell id="fcbSPb9CoAwVRRGk7kC_-108" value="" style="endArrow=classic;html=1;rounded=0;exitX=0.5;exitY=0;exitDx=0;exitDy=0;entryX=0.75;entryY=0;entryDx=0;entryDy=0;" edge="1" parent="1" source="fcbSPb9CoAwVRRGk7kC_-83" target="fcbSPb9CoAwVRRGk7kC_-86">
          <mxGeometry width="50" height="50" relative="1" as="geometry">
            <mxPoint x="250" y="1350" as="sourcePoint" />
            <mxPoint x="300" y="1300" as="targetPoint" />
            <Array as="points">
              <mxPoint x="200" y="1280" />
              <mxPoint x="60" y="1280" />
            </Array>
          </mxGeometry>
        </mxCell>
        <mxCell id="fcbSPb9CoAwVRRGk7kC_-109" value="" style="endArrow=classic;html=1;rounded=0;exitX=0.25;exitY=1;exitDx=0;exitDy=0;entryX=0.5;entryY=1;entryDx=0;entryDy=0;" edge="1" parent="1" source="fcbSPb9CoAwVRRGk7kC_-88" target="fcbSPb9CoAwVRRGk7kC_-83">
          <mxGeometry width="50" height="50" relative="1" as="geometry">
            <mxPoint x="420" y="1500" as="sourcePoint" />
            <mxPoint x="470" y="1450" as="targetPoint" />
            <Array as="points">
              <mxPoint x="340" y="1520" />
              <mxPoint x="200" y="1520" />
            </Array>
          </mxGeometry>
        </mxCell>
        <mxCell id="fcbSPb9CoAwVRRGk7kC_-110" value="" style="endArrow=classic;html=1;rounded=0;exitX=0.75;exitY=1;exitDx=0;exitDy=0;" edge="1" parent="1" source="fcbSPb9CoAwVRRGk7kC_-87">
          <mxGeometry width="50" height="50" relative="1" as="geometry">
            <mxPoint x="60" y="1560" as="sourcePoint" />
            <mxPoint x="200" y="1440" as="targetPoint" />
            <Array as="points">
              <mxPoint x="60" y="1520" />
              <mxPoint x="200" y="1520" />
            </Array>
          </mxGeometry>
        </mxCell>
        <mxCell id="fcbSPb9CoAwVRRGk7kC_-111" value="" style="endArrow=classic;html=1;rounded=0;exitX=0.25;exitY=1;exitDx=0;exitDy=0;entryX=0.16;entryY=0.55;entryDx=0;entryDy=0;entryPerimeter=0;" edge="1" parent="1" source="fcbSPb9CoAwVRRGk7kC_-87" target="fcbSPb9CoAwVRRGk7kC_-85">
          <mxGeometry width="50" height="50" relative="1" as="geometry">
            <mxPoint x="420" y="1400" as="sourcePoint" />
            <mxPoint x="470" y="1350" as="targetPoint" />
            <Array as="points">
              <mxPoint x="20" y="1520" />
              <mxPoint x="-70" y="1520" />
              <mxPoint x="-70" y="1224" />
            </Array>
          </mxGeometry>
        </mxCell>
        <mxCell id="fcbSPb9CoAwVRRGk7kC_-114" value="" style="endArrow=classic;html=1;rounded=0;exitX=0.75;exitY=1;exitDx=0;exitDy=0;entryX=0.5;entryY=1;entryDx=0;entryDy=0;" edge="1" parent="1" source="fcbSPb9CoAwVRRGk7kC_-89" target="fcbSPb9CoAwVRRGk7kC_-81">
          <mxGeometry width="50" height="50" relative="1" as="geometry">
            <mxPoint x="630" y="1440" as="sourcePoint" />
            <mxPoint x="680" y="1390" as="targetPoint" />
            <Array as="points">
              <mxPoint x="540" y="1360" />
              <mxPoint x="680" y="1360" />
            </Array>
          </mxGeometry>
        </mxCell>
        <mxCell id="fcbSPb9CoAwVRRGk7kC_-116" value="" style="endArrow=classic;html=1;rounded=0;exitX=0.55;exitY=0.95;exitDx=0;exitDy=0;exitPerimeter=0;entryX=0.5;entryY=1;entryDx=0;entryDy=0;" edge="1" parent="1" source="fcbSPb9CoAwVRRGk7kC_-82" target="fcbSPb9CoAwVRRGk7kC_-81">
          <mxGeometry width="50" height="50" relative="1" as="geometry">
            <mxPoint x="630" y="1340" as="sourcePoint" />
            <mxPoint x="680" y="1290" as="targetPoint" />
            <Array as="points">
              <mxPoint x="886" y="1360" />
              <mxPoint x="680" y="1360" />
            </Array>
          </mxGeometry>
        </mxCell>
        <mxCell id="fcbSPb9CoAwVRRGk7kC_-117" value="AddFile" style="text;html=1;strokeColor=none;fillColor=none;align=center;verticalAlign=middle;whiteSpace=wrap;rounded=0;" vertex="1" parent="1">
          <mxGeometry x="80" y="1385" width="60" height="30" as="geometry" />
        </mxCell>
        <mxCell id="fcbSPb9CoAwVRRGk7kC_-118" value="AddFile" style="text;html=1;strokeColor=none;fillColor=none;align=center;verticalAlign=middle;whiteSpace=wrap;rounded=0;" vertex="1" parent="1">
          <mxGeometry x="400" y="1385" width="60" height="30" as="geometry" />
        </mxCell>
        <mxCell id="fcbSPb9CoAwVRRGk7kC_-119" value="Lock&lt;br&gt;rankingList" style="text;html=1;strokeColor=none;fillColor=none;align=center;verticalAlign=middle;whiteSpace=wrap;rounded=0;" vertex="1" parent="1">
          <mxGeometry x="250" y="1385" width="60" height="30" as="geometry" />
        </mxCell>
        <mxCell id="fcbSPb9CoAwVRRGk7kC_-120" value="&lt;span style=&quot;color: rgb(0, 0, 0); font-family: Helvetica; font-size: 12px; font-style: normal; font-variant-ligatures: normal; font-variant-caps: normal; font-weight: 400; letter-spacing: normal; orphans: 2; text-align: center; text-indent: 0px; text-transform: none; widows: 2; word-spacing: 0px; -webkit-text-stroke-width: 0px; background-color: rgb(251, 251, 251); text-decoration-thickness: initial; text-decoration-style: initial; text-decoration-color: initial; float: none; display: inline !important;&quot;&gt;Lock&lt;/span&gt;&lt;br style=&quot;border-color: var(--border-color); color: rgb(0, 0, 0); font-family: Helvetica; font-size: 12px; font-style: normal; font-variant-ligatures: normal; font-variant-caps: normal; font-weight: 400; letter-spacing: normal; orphans: 2; text-align: center; text-indent: 0px; text-transform: none; widows: 2; word-spacing: 0px; -webkit-text-stroke-width: 0px; background-color: rgb(251, 251, 251); text-decoration-thickness: initial; text-decoration-style: initial; text-decoration-color: initial;&quot;&gt;&lt;span style=&quot;color: rgb(0, 0, 0); font-family: Helvetica; font-size: 12px; font-style: normal; font-variant-ligatures: normal; font-variant-caps: normal; font-weight: 400; letter-spacing: normal; orphans: 2; text-align: center; text-indent: 0px; text-transform: none; widows: 2; word-spacing: 0px; -webkit-text-stroke-width: 0px; background-color: rgb(251, 251, 251); text-decoration-thickness: initial; text-decoration-style: initial; text-decoration-color: initial; float: none; display: inline !important;&quot;&gt;pathsList&lt;/span&gt;" style="text;whiteSpace=wrap;html=1;" vertex="1" parent="1">
          <mxGeometry x="730" y="1215" width="80" height="50" as="geometry" />
        </mxCell>
        <mxCell id="fcbSPb9CoAwVRRGk7kC_-122" value="AddPaths&lt;br&gt;if are&lt;br&gt;path of&lt;br&gt;directory&lt;br&gt;or&amp;nbsp;&lt;br&gt;java file" style="text;html=1;strokeColor=none;fillColor=none;align=center;verticalAlign=middle;whiteSpace=wrap;rounded=0;" vertex="1" parent="1">
          <mxGeometry x="560" y="1230" width="60" height="30" as="geometry" />
        </mxCell>
        <mxCell id="fcbSPb9CoAwVRRGk7kC_-125" value="" style="ellipse;whiteSpace=wrap;html=1;aspect=fixed;" vertex="1" parent="1">
          <mxGeometry x="340" y="1200" width="80" height="80" as="geometry" />
        </mxCell>
        <mxCell id="fcbSPb9CoAwVRRGk7kC_-126" value="" style="rounded=0;whiteSpace=wrap;html=1;" vertex="1" parent="1">
          <mxGeometry x="340" y="1159" width="80" height="10" as="geometry" />
        </mxCell>
        <mxCell id="fcbSPb9CoAwVRRGk7kC_-127" value="" style="endArrow=classic;html=1;rounded=0;exitX=0.5;exitY=1;exitDx=0;exitDy=0;entryX=0.5;entryY=0;entryDx=0;entryDy=0;" edge="1" parent="1" source="fcbSPb9CoAwVRRGk7kC_-126" target="fcbSPb9CoAwVRRGk7kC_-125">
          <mxGeometry width="50" height="50" relative="1" as="geometry">
            <mxPoint x="480" y="1250" as="sourcePoint" />
            <mxPoint x="530" y="1200" as="targetPoint" />
          </mxGeometry>
        </mxCell>
        <mxCell id="fcbSPb9CoAwVRRGk7kC_-128" value="" style="endArrow=classic;html=1;rounded=0;exitX=0.5;exitY=1;exitDx=0;exitDy=0;entryX=0.75;entryY=0;entryDx=0;entryDy=0;" edge="1" parent="1" source="fcbSPb9CoAwVRRGk7kC_-125" target="fcbSPb9CoAwVRRGk7kC_-77">
          <mxGeometry width="50" height="50" relative="1" as="geometry">
            <mxPoint x="480" y="1310" as="sourcePoint" />
            <mxPoint x="530" y="1260" as="targetPoint" />
          </mxGeometry>
        </mxCell>
        <mxCell id="fcbSPb9CoAwVRRGk7kC_-129" value="Count&lt;br&gt;rows" style="text;html=1;strokeColor=none;fillColor=none;align=center;verticalAlign=middle;whiteSpace=wrap;rounded=0;" vertex="1" parent="1">
          <mxGeometry x="414" y="1225" width="60" height="30" as="geometry" />
        </mxCell>
        <mxCell id="fcbSPb9CoAwVRRGk7kC_-162" style="edgeStyle=orthogonalEdgeStyle;rounded=0;orthogonalLoop=1;jettySize=auto;html=1;entryX=0.5;entryY=0;entryDx=0;entryDy=0;" edge="1" parent="1" source="fcbSPb9CoAwVRRGk7kC_-163" target="fcbSPb9CoAwVRRGk7kC_-174">
          <mxGeometry relative="1" as="geometry" />
        </mxCell>
        <mxCell id="fcbSPb9CoAwVRRGk7kC_-163" value="" style="ellipse;whiteSpace=wrap;html=1;aspect=fixed;" vertex="1" parent="1">
          <mxGeometry x="320" y="1721" width="80" height="80" as="geometry" />
        </mxCell>
        <mxCell id="fcbSPb9CoAwVRRGk7kC_-164" value="" style="rounded=0;whiteSpace=wrap;html=1;" vertex="1" parent="1">
          <mxGeometry x="320" y="1680" width="80" height="10" as="geometry" />
        </mxCell>
        <mxCell id="fcbSPb9CoAwVRRGk7kC_-165" value="" style="endArrow=classic;html=1;rounded=0;exitX=0.5;exitY=1;exitDx=0;exitDy=0;entryX=0.5;entryY=0;entryDx=0;entryDy=0;" edge="1" parent="1" source="fcbSPb9CoAwVRRGk7kC_-164" target="fcbSPb9CoAwVRRGk7kC_-163">
          <mxGeometry width="50" height="50" relative="1" as="geometry">
            <mxPoint x="630" y="1661" as="sourcePoint" />
            <mxPoint x="680" y="1611" as="targetPoint" />
          </mxGeometry>
        </mxCell>
        <mxCell id="fcbSPb9CoAwVRRGk7kC_-166" value="" style="ellipse;whiteSpace=wrap;html=1;aspect=fixed;" vertex="1" parent="1">
          <mxGeometry x="160" y="1721" width="80" height="80" as="geometry" />
        </mxCell>
        <mxCell id="fcbSPb9CoAwVRRGk7kC_-167" style="edgeStyle=orthogonalEdgeStyle;rounded=0;orthogonalLoop=1;jettySize=auto;html=1;entryX=0.5;entryY=0;entryDx=0;entryDy=0;" edge="1" parent="1" source="fcbSPb9CoAwVRRGk7kC_-168" target="fcbSPb9CoAwVRRGk7kC_-173">
          <mxGeometry relative="1" as="geometry" />
        </mxCell>
        <mxCell id="fcbSPb9CoAwVRRGk7kC_-168" value="" style="ellipse;whiteSpace=wrap;html=1;aspect=fixed;" vertex="1" parent="1">
          <mxGeometry y="1721" width="80" height="80" as="geometry" />
        </mxCell>
        <mxCell id="fcbSPb9CoAwVRRGk7kC_-169" style="edgeStyle=orthogonalEdgeStyle;rounded=0;orthogonalLoop=1;jettySize=auto;html=1;entryX=0.25;entryY=0;entryDx=0;entryDy=0;" edge="1" parent="1" source="fcbSPb9CoAwVRRGk7kC_-170" target="fcbSPb9CoAwVRRGk7kC_-172">
          <mxGeometry relative="1" as="geometry" />
        </mxCell>
        <mxCell id="fcbSPb9CoAwVRRGk7kC_-170" value="" style="ellipse;shape=cloud;whiteSpace=wrap;html=1;" vertex="1" parent="1">
          <mxGeometry x="-40" y="1541" width="120" height="80" as="geometry" />
        </mxCell>
        <mxCell id="fcbSPb9CoAwVRRGk7kC_-171" style="edgeStyle=orthogonalEdgeStyle;rounded=0;orthogonalLoop=1;jettySize=auto;html=1;" edge="1" parent="1" source="fcbSPb9CoAwVRRGk7kC_-172" target="fcbSPb9CoAwVRRGk7kC_-168">
          <mxGeometry relative="1" as="geometry" />
        </mxCell>
        <mxCell id="fcbSPb9CoAwVRRGk7kC_-172" value="" style="rounded=0;whiteSpace=wrap;html=1;" vertex="1" parent="1">
          <mxGeometry y="1681" width="80" height="9" as="geometry" />
        </mxCell>
        <mxCell id="fcbSPb9CoAwVRRGk7kC_-173" value="" style="rounded=0;whiteSpace=wrap;html=1;" vertex="1" parent="1">
          <mxGeometry y="1841" width="80" height="10" as="geometry" />
        </mxCell>
        <mxCell id="fcbSPb9CoAwVRRGk7kC_-174" value="" style="rounded=0;whiteSpace=wrap;html=1;" vertex="1" parent="1">
          <mxGeometry x="320" y="1841" width="80" height="10" as="geometry" />
        </mxCell>
        <mxCell id="fcbSPb9CoAwVRRGk7kC_-175" value="" style="ellipse;whiteSpace=wrap;html=1;aspect=fixed;fillColor=#000000;" vertex="1" parent="1">
          <mxGeometry x="190" y="1751" width="20" height="20" as="geometry" />
        </mxCell>
        <mxCell id="fcbSPb9CoAwVRRGk7kC_-176" value="Controllers" style="text;html=1;strokeColor=none;fillColor=none;align=center;verticalAlign=middle;whiteSpace=wrap;rounded=0;" vertex="1" parent="1">
          <mxGeometry x="-10" y="1566" width="60" height="30" as="geometry" />
        </mxCell>
        <mxCell id="fcbSPb9CoAwVRRGk7kC_-177" value="" style="endArrow=classic;html=1;rounded=0;exitX=0.5;exitY=0;exitDx=0;exitDy=0;entryX=0.25;entryY=0;entryDx=0;entryDy=0;" edge="1" parent="1" source="fcbSPb9CoAwVRRGk7kC_-166" target="fcbSPb9CoAwVRRGk7kC_-164">
          <mxGeometry width="50" height="50" relative="1" as="geometry">
            <mxPoint x="280" y="1831" as="sourcePoint" />
            <mxPoint x="330" y="1781" as="targetPoint" />
            <Array as="points">
              <mxPoint x="200" y="1641" />
              <mxPoint x="340" y="1641" />
            </Array>
          </mxGeometry>
        </mxCell>
        <mxCell id="fcbSPb9CoAwVRRGk7kC_-178" value="" style="endArrow=classic;html=1;rounded=0;exitX=0.5;exitY=0;exitDx=0;exitDy=0;entryX=0.75;entryY=0;entryDx=0;entryDy=0;" edge="1" parent="1" source="fcbSPb9CoAwVRRGk7kC_-166" target="fcbSPb9CoAwVRRGk7kC_-172">
          <mxGeometry width="50" height="50" relative="1" as="geometry">
            <mxPoint x="250" y="1711" as="sourcePoint" />
            <mxPoint x="300" y="1661" as="targetPoint" />
            <Array as="points">
              <mxPoint x="200" y="1641" />
              <mxPoint x="60" y="1641" />
            </Array>
          </mxGeometry>
        </mxCell>
        <mxCell id="fcbSPb9CoAwVRRGk7kC_-179" value="" style="endArrow=classic;html=1;rounded=0;exitX=0.25;exitY=1;exitDx=0;exitDy=0;entryX=0.5;entryY=1;entryDx=0;entryDy=0;" edge="1" parent="1" source="fcbSPb9CoAwVRRGk7kC_-174" target="fcbSPb9CoAwVRRGk7kC_-166">
          <mxGeometry width="50" height="50" relative="1" as="geometry">
            <mxPoint x="420" y="1861" as="sourcePoint" />
            <mxPoint x="470" y="1811" as="targetPoint" />
            <Array as="points">
              <mxPoint x="340" y="1881" />
              <mxPoint x="200" y="1881" />
            </Array>
          </mxGeometry>
        </mxCell>
        <mxCell id="fcbSPb9CoAwVRRGk7kC_-180" value="" style="endArrow=classic;html=1;rounded=0;exitX=0.75;exitY=1;exitDx=0;exitDy=0;" edge="1" parent="1" source="fcbSPb9CoAwVRRGk7kC_-173">
          <mxGeometry width="50" height="50" relative="1" as="geometry">
            <mxPoint x="60" y="1921" as="sourcePoint" />
            <mxPoint x="200" y="1801" as="targetPoint" />
            <Array as="points">
              <mxPoint x="60" y="1881" />
              <mxPoint x="200" y="1881" />
            </Array>
          </mxGeometry>
        </mxCell>
        <mxCell id="fcbSPb9CoAwVRRGk7kC_-181" value="" style="endArrow=classic;html=1;rounded=0;exitX=0.25;exitY=1;exitDx=0;exitDy=0;entryX=0.16;entryY=0.55;entryDx=0;entryDy=0;entryPerimeter=0;" edge="1" parent="1" source="fcbSPb9CoAwVRRGk7kC_-173" target="fcbSPb9CoAwVRRGk7kC_-170">
          <mxGeometry width="50" height="50" relative="1" as="geometry">
            <mxPoint x="420" y="1761" as="sourcePoint" />
            <mxPoint x="470" y="1711" as="targetPoint" />
            <Array as="points">
              <mxPoint x="20" y="1881" />
              <mxPoint x="-70" y="1881" />
              <mxPoint x="-70" y="1585" />
            </Array>
          </mxGeometry>
        </mxCell>
        <mxCell id="fcbSPb9CoAwVRRGk7kC_-182" value="Read state" style="text;html=1;strokeColor=none;fillColor=none;align=center;verticalAlign=middle;whiteSpace=wrap;rounded=0;" vertex="1" parent="1">
          <mxGeometry x="75" y="1746" width="60" height="30" as="geometry" />
        </mxCell>
        <mxCell id="fcbSPb9CoAwVRRGk7kC_-183" value="Change&lt;br style=&quot;border-color: var(--border-color);&quot;&gt;state" style="text;html=1;strokeColor=none;fillColor=none;align=center;verticalAlign=middle;whiteSpace=wrap;rounded=0;" vertex="1" parent="1">
          <mxGeometry x="400" y="1746" width="60" height="30" as="geometry" />
        </mxCell>
        <mxCell id="fcbSPb9CoAwVRRGk7kC_-184" value="State&lt;br style=&quot;border-color: var(--border-color);&quot;&gt;Lock" style="text;html=1;strokeColor=none;fillColor=none;align=center;verticalAlign=middle;whiteSpace=wrap;rounded=0;" vertex="1" parent="1">
          <mxGeometry x="250" y="1746" width="60" height="30" as="geometry" />
        </mxCell>
        <mxCell id="fcbSPb9CoAwVRRGk7kC_-187" value="" style="endArrow=classic;html=1;rounded=0;exitX=0.75;exitY=1;exitDx=0;exitDy=0;entryX=0.75;entryY=0;entryDx=0;entryDy=0;" edge="1" parent="1" target="fcbSPb9CoAwVRRGk7kC_-164" source="fcbSPb9CoAwVRRGk7kC_-88">
          <mxGeometry width="50" height="50" relative="1" as="geometry">
            <mxPoint x="380" y="1641" as="sourcePoint" />
            <mxPoint x="530" y="1621" as="targetPoint" />
          </mxGeometry>
        </mxCell>
        <mxCell id="fcbSPb9CoAwVRRGk7kC_-188" value="" style="ellipse;whiteSpace=wrap;html=1;aspect=fixed;" vertex="1" parent="1">
          <mxGeometry x="400" y="1920" width="80" height="80" as="geometry" />
        </mxCell>
        <mxCell id="fcbSPb9CoAwVRRGk7kC_-189" value="" style="endArrow=classic;html=1;rounded=0;exitX=0.75;exitY=1;exitDx=0;exitDy=0;entryX=0.5;entryY=0;entryDx=0;entryDy=0;" edge="1" parent="1" source="fcbSPb9CoAwVRRGk7kC_-174" target="fcbSPb9CoAwVRRGk7kC_-188">
          <mxGeometry width="50" height="50" relative="1" as="geometry">
            <mxPoint x="810" y="1880" as="sourcePoint" />
            <mxPoint x="860" y="1830" as="targetPoint" />
            <Array as="points">
              <mxPoint x="380" y="1880" />
              <mxPoint x="440" y="1880" />
            </Array>
          </mxGeometry>
        </mxCell>
        <mxCell id="fcbSPb9CoAwVRRGk7kC_-190" value="" style="endArrow=classic;html=1;rounded=0;exitX=0.25;exitY=1;exitDx=0;exitDy=0;entryX=0.5;entryY=0;entryDx=0;entryDy=0;" edge="1" parent="1" source="fcbSPb9CoAwVRRGk7kC_-89" target="fcbSPb9CoAwVRRGk7kC_-188">
          <mxGeometry width="50" height="50" relative="1" as="geometry">
            <mxPoint x="590" y="1740" as="sourcePoint" />
            <mxPoint x="640" y="1690" as="targetPoint" />
            <Array as="points">
              <mxPoint x="500" y="1880" />
              <mxPoint x="440" y="1880" />
            </Array>
          </mxGeometry>
        </mxCell>
        <mxCell id="fcbSPb9CoAwVRRGk7kC_-228" style="edgeStyle=orthogonalEdgeStyle;rounded=0;orthogonalLoop=1;jettySize=auto;html=1;entryX=0.25;entryY=0;entryDx=0;entryDy=0;" edge="1" parent="1" source="fcbSPb9CoAwVRRGk7kC_-193" target="fcbSPb9CoAwVRRGk7kC_-204">
          <mxGeometry relative="1" as="geometry" />
        </mxCell>
        <mxCell id="fcbSPb9CoAwVRRGk7kC_-193" value="" style="rounded=0;whiteSpace=wrap;html=1;" vertex="1" parent="1">
          <mxGeometry x="420" y="2040" width="80" height="10" as="geometry" />
        </mxCell>
        <mxCell id="fcbSPb9CoAwVRRGk7kC_-196" value="" style="ellipse;whiteSpace=wrap;html=1;aspect=fixed;" vertex="1" parent="1">
          <mxGeometry x="1000" y="2160" width="80" height="80" as="geometry" />
        </mxCell>
        <mxCell id="fcbSPb9CoAwVRRGk7kC_-197" value="" style="ellipse;shape=cloud;whiteSpace=wrap;html=1;" vertex="1" parent="1">
          <mxGeometry x="1160" y="2158" width="120" height="80" as="geometry" />
        </mxCell>
        <mxCell id="fcbSPb9CoAwVRRGk7kC_-199" value="Lock&lt;br&gt;pathsList" style="text;html=1;strokeColor=none;fillColor=none;align=center;verticalAlign=middle;whiteSpace=wrap;rounded=0;" vertex="1" parent="1">
          <mxGeometry x="1080" y="2185" width="60" height="30" as="geometry" />
        </mxCell>
        <mxCell id="fcbSPb9CoAwVRRGk7kC_-200" value="Threads" style="text;html=1;strokeColor=none;fillColor=none;align=center;verticalAlign=middle;whiteSpace=wrap;rounded=0;" vertex="1" parent="1">
          <mxGeometry x="1190" y="2185" width="60" height="30" as="geometry" />
        </mxCell>
        <mxCell id="fcbSPb9CoAwVRRGk7kC_-201" value="" style="endArrow=classic;html=1;rounded=0;exitX=0.5;exitY=0;exitDx=0;exitDy=0;entryX=0.75;entryY=0;entryDx=0;entryDy=0;" edge="1" parent="1" source="fcbSPb9CoAwVRRGk7kC_-196" target="fcbSPb9CoAwVRRGk7kC_-193">
          <mxGeometry width="50" height="50" relative="1" as="geometry">
            <mxPoint x="620" y="2140" as="sourcePoint" />
            <mxPoint x="670" y="2090" as="targetPoint" />
            <Array as="points">
              <mxPoint x="1040" y="2000" />
              <mxPoint x="480" y="2000" />
            </Array>
          </mxGeometry>
        </mxCell>
        <mxCell id="fcbSPb9CoAwVRRGk7kC_-202" value="" style="endArrow=classic;html=1;rounded=0;exitX=0.5;exitY=0;exitDx=0;exitDy=0;entryX=0.414;entryY=0.095;entryDx=0;entryDy=0;entryPerimeter=0;" edge="1" parent="1" source="fcbSPb9CoAwVRRGk7kC_-196">
          <mxGeometry width="50" height="50" relative="1" as="geometry">
            <mxPoint x="976" y="2010" as="sourcePoint" />
            <mxPoint x="1209.6799999999998" y="2167.6000000000004" as="targetPoint" />
            <Array as="points">
              <mxPoint x="1040" y="2080" />
              <mxPoint x="1210" y="2080" />
            </Array>
          </mxGeometry>
        </mxCell>
        <mxCell id="fcbSPb9CoAwVRRGk7kC_-204" value="" style="rounded=0;whiteSpace=wrap;html=1;" vertex="1" parent="1">
          <mxGeometry x="440" y="2120" width="80" height="10" as="geometry" />
        </mxCell>
        <mxCell id="fcbSPb9CoAwVRRGk7kC_-205" value="" style="ellipse;whiteSpace=wrap;html=1;aspect=fixed;" vertex="1" parent="1">
          <mxGeometry x="440" y="2160" width="80" height="80" as="geometry" />
        </mxCell>
        <mxCell id="fcbSPb9CoAwVRRGk7kC_-206" value="&lt;div style=&quot;background-color: rgb(255, 255, 255); color: rgb(8, 8, 8); font-family: &amp;quot;Source Code Pro&amp;quot;, monospace;&quot;&gt;nActiveSlaveThread&lt;/div&gt;&lt;div style=&quot;background-color: rgb(255, 255, 255); color: rgb(8, 8, 8); font-family: &amp;quot;Source Code Pro&amp;quot;, monospace;&quot;&gt;--&lt;/div&gt;" style="text;html=1;strokeColor=none;fillColor=none;align=center;verticalAlign=middle;whiteSpace=wrap;rounded=0;" vertex="1" parent="1">
          <mxGeometry x="560" y="2185" width="60" height="30" as="geometry" />
        </mxCell>
        <mxCell id="fcbSPb9CoAwVRRGk7kC_-207" value="" style="endArrow=classic;html=1;rounded=0;exitX=0.5;exitY=1;exitDx=0;exitDy=0;entryX=0.5;entryY=0;entryDx=0;entryDy=0;" edge="1" parent="1" source="fcbSPb9CoAwVRRGk7kC_-204" target="fcbSPb9CoAwVRRGk7kC_-205">
          <mxGeometry width="50" height="50" relative="1" as="geometry">
            <mxPoint x="760" y="2210" as="sourcePoint" />
            <mxPoint x="810" y="2160" as="targetPoint" />
          </mxGeometry>
        </mxCell>
        <mxCell id="fcbSPb9CoAwVRRGk7kC_-208" value="" style="ellipse;whiteSpace=wrap;html=1;aspect=fixed;" vertex="1" parent="1">
          <mxGeometry x="680" y="2160" width="80" height="80" as="geometry" />
        </mxCell>
        <mxCell id="fcbSPb9CoAwVRRGk7kC_-209" value="" style="endArrow=classic;html=1;rounded=0;exitX=0.5;exitY=0;exitDx=0;exitDy=0;entryX=0.75;entryY=0;entryDx=0;entryDy=0;" edge="1" parent="1" source="fcbSPb9CoAwVRRGk7kC_-208" target="fcbSPb9CoAwVRRGk7kC_-204">
          <mxGeometry width="50" height="50" relative="1" as="geometry">
            <mxPoint x="760" y="2210" as="sourcePoint" />
            <mxPoint x="720" y="2080" as="targetPoint" />
            <Array as="points">
              <mxPoint x="720" y="2080" />
              <mxPoint x="500" y="2080" />
            </Array>
          </mxGeometry>
        </mxCell>
        <mxCell id="fcbSPb9CoAwVRRGk7kC_-210" value="" style="ellipse;shape=cloud;whiteSpace=wrap;html=1;" vertex="1" parent="1">
          <mxGeometry x="840" y="2160" width="120" height="80" as="geometry" />
        </mxCell>
        <mxCell id="fcbSPb9CoAwVRRGk7kC_-211" value="" style="endArrow=classic;html=1;rounded=0;exitX=0.5;exitY=0;exitDx=0;exitDy=0;" edge="1" parent="1" source="fcbSPb9CoAwVRRGk7kC_-208">
          <mxGeometry width="50" height="50" relative="1" as="geometry">
            <mxPoint x="760" y="2210" as="sourcePoint" />
            <mxPoint x="890" y="2120" as="targetPoint" />
            <Array as="points">
              <mxPoint x="720" y="2080" />
              <mxPoint x="890" y="2080" />
            </Array>
          </mxGeometry>
        </mxCell>
        <mxCell id="fcbSPb9CoAwVRRGk7kC_-212" value="&lt;br&gt;Slaves&lt;br&gt;thread" style="text;html=1;strokeColor=none;fillColor=none;align=center;verticalAlign=middle;whiteSpace=wrap;rounded=0;" vertex="1" parent="1">
          <mxGeometry x="872" y="2183" width="60" height="30" as="geometry" />
        </mxCell>
        <mxCell id="fcbSPb9CoAwVRRGk7kC_-213" style="edgeStyle=orthogonalEdgeStyle;rounded=0;orthogonalLoop=1;jettySize=auto;html=1;entryX=0.422;entryY=0.096;entryDx=0;entryDy=0;entryPerimeter=0;" edge="1" parent="1" source="fcbSPb9CoAwVRRGk7kC_-214" target="fcbSPb9CoAwVRRGk7kC_-210">
          <mxGeometry relative="1" as="geometry" />
        </mxCell>
        <mxCell id="fcbSPb9CoAwVRRGk7kC_-214" value="" style="rounded=0;whiteSpace=wrap;html=1;" vertex="1" parent="1">
          <mxGeometry x="850" y="2120" width="80" height="10" as="geometry" />
        </mxCell>
        <mxCell id="fcbSPb9CoAwVRRGk7kC_-215" value="Lock&lt;br&gt;counter" style="text;html=1;strokeColor=none;fillColor=none;align=center;verticalAlign=middle;whiteSpace=wrap;rounded=0;" vertex="1" parent="1">
          <mxGeometry x="760" y="2185" width="60" height="30" as="geometry" />
        </mxCell>
        <mxCell id="fcbSPb9CoAwVRRGk7kC_-217" value="" style="endArrow=classic;html=1;rounded=0;exitX=0.5;exitY=1;exitDx=0;exitDy=0;entryX=0.5;entryY=0;entryDx=0;entryDy=0;" edge="1" parent="1" source="fcbSPb9CoAwVRRGk7kC_-205">
          <mxGeometry width="50" height="50" relative="1" as="geometry">
            <mxPoint x="950" y="2240" as="sourcePoint" />
            <mxPoint x="480" y="2280" as="targetPoint" />
          </mxGeometry>
        </mxCell>
        <mxCell id="fcbSPb9CoAwVRRGk7kC_-222" value="" style="ellipse;whiteSpace=wrap;html=1;aspect=fixed;fillColor=#000000;" vertex="1" parent="1">
          <mxGeometry x="710" y="2190" width="20" height="20" as="geometry" />
        </mxCell>
        <mxCell id="fcbSPb9CoAwVRRGk7kC_-223" value="" style="ellipse;whiteSpace=wrap;html=1;aspect=fixed;fillColor=#000000;" vertex="1" parent="1">
          <mxGeometry x="1030" y="2190" width="20" height="20" as="geometry" />
        </mxCell>
        <mxCell id="fcbSPb9CoAwVRRGk7kC_-224" value="" style="endArrow=classic;html=1;rounded=0;exitX=0.31;exitY=0.8;exitDx=0;exitDy=0;exitPerimeter=0;" edge="1" parent="1" source="fcbSPb9CoAwVRRGk7kC_-210">
          <mxGeometry width="50" height="50" relative="1" as="geometry">
            <mxPoint x="770" y="2310" as="sourcePoint" />
            <mxPoint x="720" y="2240" as="targetPoint" />
            <Array as="points">
              <mxPoint x="877" y="2320" />
              <mxPoint x="720" y="2320" />
            </Array>
          </mxGeometry>
        </mxCell>
        <mxCell id="fcbSPb9CoAwVRRGk7kC_-225" value="" style="endArrow=classic;html=1;rounded=0;exitX=0.31;exitY=0.8;exitDx=0;exitDy=0;exitPerimeter=0;entryX=0.5;entryY=1;entryDx=0;entryDy=0;" edge="1" parent="1" source="fcbSPb9CoAwVRRGk7kC_-197" target="fcbSPb9CoAwVRRGk7kC_-196">
          <mxGeometry width="50" height="50" relative="1" as="geometry">
            <mxPoint x="1197.1999999999998" y="2224.000000000001" as="sourcePoint" />
            <mxPoint x="810" y="2280" as="targetPoint" />
            <Array as="points">
              <mxPoint x="1200" y="2340" />
              <mxPoint x="1040" y="2340" />
            </Array>
          </mxGeometry>
        </mxCell>
        <mxCell id="fcbSPb9CoAwVRRGk7kC_-227" value="" style="endArrow=classic;html=1;rounded=0;exitX=0.5;exitY=1;exitDx=0;exitDy=0;entryX=0.25;entryY=0;entryDx=0;entryDy=0;" edge="1" parent="1" source="fcbSPb9CoAwVRRGk7kC_-188" target="fcbSPb9CoAwVRRGk7kC_-193">
          <mxGeometry width="50" height="50" relative="1" as="geometry">
            <mxPoint x="470" y="2120" as="sourcePoint" />
            <mxPoint x="520" y="2070" as="targetPoint" />
          </mxGeometry>
        </mxCell>
        <mxCell id="fcbSPb9CoAwVRRGk7kC_-231" value="" style="ellipse;whiteSpace=wrap;html=1;aspect=fixed;" vertex="1" parent="1">
          <mxGeometry x="420" y="2360" width="80" height="80" as="geometry" />
        </mxCell>
        <mxCell id="fcbSPb9CoAwVRRGk7kC_-232" value="" style="rounded=0;whiteSpace=wrap;html=1;" vertex="1" parent="1">
          <mxGeometry x="440" y="2280" width="80" height="10" as="geometry" />
        </mxCell>
        <mxCell id="fcbSPb9CoAwVRRGk7kC_-233" value="" style="endArrow=classic;html=1;rounded=0;exitX=0.25;exitY=1;exitDx=0;exitDy=0;entryX=0.5;entryY=0;entryDx=0;entryDy=0;" edge="1" parent="1" source="fcbSPb9CoAwVRRGk7kC_-232" target="fcbSPb9CoAwVRRGk7kC_-231">
          <mxGeometry width="50" height="50" relative="1" as="geometry">
            <mxPoint x="660" y="2390" as="sourcePoint" />
            <mxPoint x="710" y="2340" as="targetPoint" />
          </mxGeometry>
        </mxCell>
        <mxCell id="fcbSPb9CoAwVRRGk7kC_-234" value="&lt;div style=&quot;background-color: rgb(255, 255, 255); color: rgb(8, 8, 8); font-family: &amp;quot;Source Code Pro&amp;quot;, monospace;&quot;&gt;if (&lt;/div&gt;&lt;div style=&quot;background-color: rgb(255, 255, 255); color: rgb(8, 8, 8); font-family: &amp;quot;Source Code Pro&amp;quot;, monospace;&quot;&gt;nActiveSlaveThread&lt;/div&gt;&lt;div style=&quot;background-color: rgb(255, 255, 255); color: rgb(8, 8, 8); font-family: &amp;quot;Source Code Pro&amp;quot;, monospace;&quot;&gt;== 0&lt;/div&gt;&lt;div style=&quot;background-color: rgb(255, 255, 255); color: rgb(8, 8, 8); font-family: &amp;quot;Source Code Pro&amp;quot;, monospace;&quot;&gt;and&amp;nbsp;&lt;/div&gt;&lt;div style=&quot;background-color: rgb(255, 255, 255); color: rgb(8, 8, 8); font-family: &amp;quot;Source Code Pro&amp;quot;, monospace;&quot;&gt;pathsList is empty )&lt;/div&gt;" style="text;html=1;strokeColor=none;fillColor=none;align=center;verticalAlign=middle;whiteSpace=wrap;rounded=0;" vertex="1" parent="1">
          <mxGeometry x="530" y="2385" width="60" height="30" as="geometry" />
        </mxCell>
        <mxCell id="fcbSPb9CoAwVRRGk7kC_-235" value="" style="endArrow=classic;html=1;rounded=0;exitX=0.5;exitY=1;exitDx=0;exitDy=0;" edge="1" parent="1" source="fcbSPb9CoAwVRRGk7kC_-231">
          <mxGeometry width="50" height="50" relative="1" as="geometry">
            <mxPoint x="640" y="2560" as="sourcePoint" />
            <mxPoint x="540" y="2480" as="targetPoint" />
          </mxGeometry>
        </mxCell>
        <mxCell id="fcbSPb9CoAwVRRGk7kC_-236" value="" style="endArrow=classic;html=1;rounded=0;exitX=0.5;exitY=1;exitDx=0;exitDy=0;" edge="1" parent="1" source="fcbSPb9CoAwVRRGk7kC_-231">
          <mxGeometry width="50" height="50" relative="1" as="geometry">
            <mxPoint x="640" y="2560" as="sourcePoint" />
            <mxPoint x="380" y="2480" as="targetPoint" />
          </mxGeometry>
        </mxCell>
        <mxCell id="fcbSPb9CoAwVRRGk7kC_-237" value="True" style="text;html=1;strokeColor=none;fillColor=none;align=center;verticalAlign=middle;whiteSpace=wrap;rounded=0;" vertex="1" parent="1">
          <mxGeometry x="380" y="2440" width="60" height="30" as="geometry" />
        </mxCell>
        <mxCell id="fcbSPb9CoAwVRRGk7kC_-238" value="False" style="text;html=1;strokeColor=none;fillColor=none;align=center;verticalAlign=middle;whiteSpace=wrap;rounded=0;" vertex="1" parent="1">
          <mxGeometry x="490" y="2440" width="60" height="30" as="geometry" />
        </mxCell>
        <mxCell id="fcbSPb9CoAwVRRGk7kC_-240" style="edgeStyle=orthogonalEdgeStyle;rounded=0;orthogonalLoop=1;jettySize=auto;html=1;entryX=0.5;entryY=0;entryDx=0;entryDy=0;" edge="1" parent="1" source="fcbSPb9CoAwVRRGk7kC_-241" target="fcbSPb9CoAwVRRGk7kC_-251">
          <mxGeometry relative="1" as="geometry" />
        </mxCell>
        <mxCell id="fcbSPb9CoAwVRRGk7kC_-241" value="" style="ellipse;whiteSpace=wrap;html=1;aspect=fixed;" vertex="1" parent="1">
          <mxGeometry x="340" y="2520" width="80" height="80" as="geometry" />
        </mxCell>
        <mxCell id="fcbSPb9CoAwVRRGk7kC_-242" value="" style="rounded=0;whiteSpace=wrap;html=1;" vertex="1" parent="1">
          <mxGeometry x="340" y="2480" width="80" height="10" as="geometry" />
        </mxCell>
        <mxCell id="fcbSPb9CoAwVRRGk7kC_-243" value="" style="endArrow=classic;html=1;rounded=0;exitX=0.5;exitY=1;exitDx=0;exitDy=0;entryX=0.5;entryY=0;entryDx=0;entryDy=0;" edge="1" parent="1" source="fcbSPb9CoAwVRRGk7kC_-242" target="fcbSPb9CoAwVRRGk7kC_-241">
          <mxGeometry width="50" height="50" relative="1" as="geometry">
            <mxPoint x="650" y="2465" as="sourcePoint" />
            <mxPoint x="700" y="2415" as="targetPoint" />
          </mxGeometry>
        </mxCell>
        <mxCell id="fcbSPb9CoAwVRRGk7kC_-244" value="" style="ellipse;whiteSpace=wrap;html=1;aspect=fixed;" vertex="1" parent="1">
          <mxGeometry x="180" y="2525" width="80" height="80" as="geometry" />
        </mxCell>
        <mxCell id="fcbSPb9CoAwVRRGk7kC_-270" style="edgeStyle=orthogonalEdgeStyle;rounded=0;orthogonalLoop=1;jettySize=auto;html=1;entryX=0.5;entryY=0;entryDx=0;entryDy=0;" edge="1" parent="1" source="fcbSPb9CoAwVRRGk7kC_-246" target="fcbSPb9CoAwVRRGk7kC_-264">
          <mxGeometry relative="1" as="geometry" />
        </mxCell>
        <mxCell id="fcbSPb9CoAwVRRGk7kC_-246" value="" style="ellipse;whiteSpace=wrap;html=1;aspect=fixed;" vertex="1" parent="1">
          <mxGeometry x="20" y="2525" width="80" height="80" as="geometry" />
        </mxCell>
        <mxCell id="fcbSPb9CoAwVRRGk7kC_-251" value="" style="rounded=0;whiteSpace=wrap;html=1;" vertex="1" parent="1">
          <mxGeometry x="340" y="2640" width="80" height="10" as="geometry" />
        </mxCell>
        <mxCell id="fcbSPb9CoAwVRRGk7kC_-252" value="" style="ellipse;whiteSpace=wrap;html=1;aspect=fixed;fillColor=#000000;" vertex="1" parent="1">
          <mxGeometry x="210" y="2555" width="20" height="20" as="geometry" />
        </mxCell>
        <mxCell id="fcbSPb9CoAwVRRGk7kC_-254" value="" style="endArrow=classic;html=1;rounded=0;exitX=0.5;exitY=0;exitDx=0;exitDy=0;entryX=0.25;entryY=0;entryDx=0;entryDy=0;" edge="1" parent="1" source="fcbSPb9CoAwVRRGk7kC_-244" target="fcbSPb9CoAwVRRGk7kC_-242">
          <mxGeometry width="50" height="50" relative="1" as="geometry">
            <mxPoint x="300" y="2635" as="sourcePoint" />
            <mxPoint x="350" y="2585" as="targetPoint" />
            <Array as="points">
              <mxPoint x="220" y="2445" />
              <mxPoint x="360" y="2445" />
            </Array>
          </mxGeometry>
        </mxCell>
        <mxCell id="fcbSPb9CoAwVRRGk7kC_-256" value="" style="endArrow=classic;html=1;rounded=0;exitX=0.25;exitY=1;exitDx=0;exitDy=0;entryX=0.5;entryY=1;entryDx=0;entryDy=0;" edge="1" parent="1" source="fcbSPb9CoAwVRRGk7kC_-251" target="fcbSPb9CoAwVRRGk7kC_-244">
          <mxGeometry width="50" height="50" relative="1" as="geometry">
            <mxPoint x="440" y="2665" as="sourcePoint" />
            <mxPoint x="490" y="2615" as="targetPoint" />
            <Array as="points">
              <mxPoint x="360" y="2680" />
              <mxPoint x="220" y="2680" />
            </Array>
          </mxGeometry>
        </mxCell>
        <mxCell id="fcbSPb9CoAwVRRGk7kC_-257" value="" style="endArrow=classic;html=1;rounded=0;exitX=0.75;exitY=1;exitDx=0;exitDy=0;" edge="1" parent="1" source="fcbSPb9CoAwVRRGk7kC_-264">
          <mxGeometry width="50" height="50" relative="1" as="geometry">
            <mxPoint x="79.99999999999977" y="2655" as="sourcePoint" />
            <mxPoint x="220" y="2605" as="targetPoint" />
            <Array as="points">
              <mxPoint x="80" y="2680" />
              <mxPoint x="220" y="2680" />
            </Array>
          </mxGeometry>
        </mxCell>
        <mxCell id="fcbSPb9CoAwVRRGk7kC_-259" value="Read state" style="text;html=1;strokeColor=none;fillColor=none;align=center;verticalAlign=middle;whiteSpace=wrap;rounded=0;" vertex="1" parent="1">
          <mxGeometry x="95" y="2550" width="60" height="30" as="geometry" />
        </mxCell>
        <mxCell id="fcbSPb9CoAwVRRGk7kC_-260" value="Change&lt;br style=&quot;border-color: var(--border-color);&quot;&gt;state" style="text;html=1;strokeColor=none;fillColor=none;align=center;verticalAlign=middle;whiteSpace=wrap;rounded=0;" vertex="1" parent="1">
          <mxGeometry x="420" y="2545" width="60" height="30" as="geometry" />
        </mxCell>
        <mxCell id="fcbSPb9CoAwVRRGk7kC_-261" value="Master&lt;br&gt;State&lt;br style=&quot;border-color: var(--border-color);&quot;&gt;Lock" style="text;html=1;strokeColor=none;fillColor=none;align=center;verticalAlign=middle;whiteSpace=wrap;rounded=0;" vertex="1" parent="1">
          <mxGeometry x="260" y="2550" width="60" height="30" as="geometry" />
        </mxCell>
        <mxCell id="fcbSPb9CoAwVRRGk7kC_-264" value="" style="rounded=0;whiteSpace=wrap;html=1;" vertex="1" parent="1">
          <mxGeometry x="20" y="2640" width="80" height="10" as="geometry" />
        </mxCell>
        <mxCell id="fcbSPb9CoAwVRRGk7kC_-269" style="edgeStyle=orthogonalEdgeStyle;rounded=0;orthogonalLoop=1;jettySize=auto;html=1;exitX=0.5;exitY=1;exitDx=0;exitDy=0;" edge="1" parent="1" source="fcbSPb9CoAwVRRGk7kC_-265">
          <mxGeometry relative="1" as="geometry">
            <mxPoint x="59.666666666666515" y="2520" as="targetPoint" />
          </mxGeometry>
        </mxCell>
        <mxCell id="fcbSPb9CoAwVRRGk7kC_-265" value="" style="rounded=0;whiteSpace=wrap;html=1;" vertex="1" parent="1">
          <mxGeometry x="20" y="2480" width="80" height="10" as="geometry" />
        </mxCell>
        <mxCell id="fcbSPb9CoAwVRRGk7kC_-268" style="edgeStyle=orthogonalEdgeStyle;rounded=0;orthogonalLoop=1;jettySize=auto;html=1;entryX=0.5;entryY=0;entryDx=0;entryDy=0;" edge="1" parent="1" target="fcbSPb9CoAwVRRGk7kC_-265">
          <mxGeometry relative="1" as="geometry">
            <mxPoint x="60" y="2440" as="sourcePoint" />
          </mxGeometry>
        </mxCell>
        <mxCell id="fcbSPb9CoAwVRRGk7kC_-266" value="" style="ellipse;shape=cloud;whiteSpace=wrap;html=1;" vertex="1" parent="1">
          <mxGeometry y="2360" width="120" height="80" as="geometry" />
        </mxCell>
        <mxCell id="fcbSPb9CoAwVRRGk7kC_-271" value="" style="endArrow=classic;html=1;rounded=0;exitX=0.25;exitY=1;exitDx=0;exitDy=0;entryX=0.16;entryY=0.55;entryDx=0;entryDy=0;entryPerimeter=0;" edge="1" parent="1" source="fcbSPb9CoAwVRRGk7kC_-264">
          <mxGeometry width="50" height="50" relative="1" as="geometry">
            <mxPoint x="350" y="2660" as="sourcePoint" />
            <mxPoint x="19.200000000000273" y="2404" as="targetPoint" />
            <Array as="points">
              <mxPoint x="40" y="2680" />
              <mxPoint x="-20" y="2680" />
              <mxPoint x="-20" y="2404" />
            </Array>
          </mxGeometry>
        </mxCell>
        <mxCell id="fcbSPb9CoAwVRRGk7kC_-272" value="Thread&lt;br&gt;Master" style="text;html=1;strokeColor=none;fillColor=none;align=center;verticalAlign=middle;whiteSpace=wrap;rounded=0;" vertex="1" parent="1">
          <mxGeometry x="30" y="2385" width="60" height="30" as="geometry" />
        </mxCell>
        <mxCell id="fcbSPb9CoAwVRRGk7kC_-273" value="" style="ellipse;whiteSpace=wrap;html=1;aspect=fixed;" vertex="1" parent="1">
          <mxGeometry x="420" y="2720" width="80" height="80" as="geometry" />
        </mxCell>
        <mxCell id="fcbSPb9CoAwVRRGk7kC_-274" value="" style="endArrow=classic;html=1;rounded=0;exitX=0.75;exitY=1;exitDx=0;exitDy=0;entryX=0.5;entryY=0;entryDx=0;entryDy=0;" edge="1" parent="1" source="fcbSPb9CoAwVRRGk7kC_-251" target="fcbSPb9CoAwVRRGk7kC_-273">
          <mxGeometry width="50" height="50" relative="1" as="geometry">
            <mxPoint x="710" y="2540" as="sourcePoint" />
            <mxPoint x="760" y="2490" as="targetPoint" />
            <Array as="points">
              <mxPoint x="400" y="2680" />
              <mxPoint x="460" y="2680" />
            </Array>
          </mxGeometry>
        </mxCell>
        <mxCell id="fcbSPb9CoAwVRRGk7kC_-275" value="" style="rounded=0;whiteSpace=wrap;html=1;" vertex="1" parent="1">
          <mxGeometry x="500" y="2480" width="80" height="10" as="geometry" />
        </mxCell>
        <mxCell id="fcbSPb9CoAwVRRGk7kC_-276" value="" style="endArrow=classic;html=1;rounded=0;exitX=0.5;exitY=1;exitDx=0;exitDy=0;entryX=0.5;entryY=0;entryDx=0;entryDy=0;" edge="1" parent="1" source="fcbSPb9CoAwVRRGk7kC_-275" target="fcbSPb9CoAwVRRGk7kC_-273">
          <mxGeometry width="50" height="50" relative="1" as="geometry">
            <mxPoint x="710" y="2550" as="sourcePoint" />
            <mxPoint x="760" y="2500" as="targetPoint" />
            <Array as="points">
              <mxPoint x="540" y="2680" />
              <mxPoint x="460" y="2680" />
            </Array>
          </mxGeometry>
        </mxCell>
        <mxCell id="fcbSPb9CoAwVRRGk7kC_-277" value="" style="rounded=0;whiteSpace=wrap;html=1;" vertex="1" parent="1">
          <mxGeometry x="420" y="2830" width="80" height="10" as="geometry" />
        </mxCell>
        <mxCell id="fcbSPb9CoAwVRRGk7kC_-278" value="" style="endArrow=classic;html=1;rounded=0;exitX=0.5;exitY=1;exitDx=0;exitDy=0;entryX=0.5;entryY=0;entryDx=0;entryDy=0;" edge="1" parent="1" source="fcbSPb9CoAwVRRGk7kC_-273" target="fcbSPb9CoAwVRRGk7kC_-277">
          <mxGeometry width="50" height="50" relative="1" as="geometry">
            <mxPoint x="940" y="2630" as="sourcePoint" />
            <mxPoint x="990" y="2580" as="targetPoint" />
          </mxGeometry>
        </mxCell>
        <mxCell id="fcbSPb9CoAwVRRGk7kC_-279" value="" style="endArrow=classic;html=1;rounded=0;exitX=0.75;exitY=1;exitDx=0;exitDy=0;entryX=0.5;entryY=1;entryDx=0;entryDy=0;" edge="1" parent="1" source="fcbSPb9CoAwVRRGk7kC_-277" target="fcbSPb9CoAwVRRGk7kC_-196">
          <mxGeometry width="50" height="50" relative="1" as="geometry">
            <mxPoint x="960" y="2630" as="sourcePoint" />
            <mxPoint x="1010" y="2580" as="targetPoint" />
            <Array as="points">
              <mxPoint x="480" y="2880" />
              <mxPoint x="1040" y="2880" />
            </Array>
          </mxGeometry>
        </mxCell>
        <mxCell id="fcbSPb9CoAwVRRGk7kC_-280" value="" style="endArrow=classic;html=1;rounded=0;exitX=0.75;exitY=1;exitDx=0;exitDy=0;entryX=0.5;entryY=1;entryDx=0;entryDy=0;" edge="1" parent="1" source="fcbSPb9CoAwVRRGk7kC_-232" target="fcbSPb9CoAwVRRGk7kC_-208">
          <mxGeometry width="50" height="50" relative="1" as="geometry">
            <mxPoint x="470" y="2300" as="sourcePoint" />
            <mxPoint x="500" y="2320" as="targetPoint" />
            <Array as="points">
              <mxPoint x="500" y="2320" />
              <mxPoint x="720" y="2320" />
            </Array>
          </mxGeometry>
        </mxCell>
        <mxCell id="fcbSPb9CoAwVRRGk7kC_-281" value="" style="endArrow=classic;html=1;rounded=0;entryX=0;entryY=0;entryDx=0;entryDy=0;" edge="1" parent="1" target="aZluGWaW0WpS-Q8TLCgg-2">
          <mxGeometry width="50" height="50" relative="1" as="geometry">
            <mxPoint x="440" y="2840" as="sourcePoint" />
            <mxPoint x="-240" y="1010" as="targetPoint" />
            <Array as="points">
              <mxPoint x="440" y="2880" />
              <mxPoint x="-200" y="2880" />
              <mxPoint x="-200" y="92" />
            </Array>
          </mxGeometry>
        </mxCell>
      </root>
    </mxGraphModel>
  </diagram>
</mxfile>
